<?xml version="1.0" encoding="UTF-8"?>
<svg version="1.1" xmlns="http://www.w3.org/2000/svg" width="893" height="277">
<path d="M0 0 C294.69 0 589.38 0 893 0 C893 91.41 893 182.82 893 277 C598.31 277 303.62 277 0 277 C0 185.59 0 94.18 0 0 Z " fill="#FCFCFC" transform="translate(0,0)"/>
<path d="M0 0 C6.85302514 4.9107239 11.55305493 12.1476299 16.359375 18.96875 C19.7787753 23.76600173 23.18309799 28.53736358 26.921875 33.09375 C31.19450566 38.31284948 35.07275337 43.80223855 38.99951172 49.2824707 C42.27468063 53.84279051 45.59932098 58.34987498 49.046875 62.78125 C54.4865904 69.77772605 59.70844607 76.92776309 64.921875 84.09375 C68.61195736 82.86372255 69.17013511 81.6903467 71.359375 78.53125 C72.06707031 77.52964844 72.77476562 76.52804688 73.50390625 75.49609375 C73.89143066 74.94679199 74.27895508 74.39749023 74.67822266 73.83154297 C76.91178352 70.71052094 79.23444284 67.65651881 81.546875 64.59375 C85.96344926 58.72788871 90.32929999 52.82705066 94.671875 46.90625 C100.45753385 39.02613247 106.34157398 31.22495811 112.29614258 23.47167969 C115.12353702 19.78771947 117.94187761 16.10891186 120.6171875 12.3125 C125.56316838 5.35021333 130.36674876 -0.1779885 138.734375 -2.78125 C139.78625 -2.8225 140.838125 -2.86375 141.921875 -2.90625 C143.28505859 -2.99712891 143.28505859 -2.99712891 144.67578125 -3.08984375 C151.35149351 -3.36556153 156.47134057 -2.97513733 161.921875 1.09375 C168.55320375 7.43035303 170.06101996 14.43299925 170.30282593 23.36174011 C170.33178351 26.26643621 170.32244753 29.17018066 170.31005859 32.07495117 C170.31412934 33.6822902 170.31947403 35.28962642 170.32598877 36.8969574 C170.33960512 41.23973451 170.33438821 45.58229658 170.32485151 49.9250772 C170.3172293 54.47864702 170.32430726 59.03219907 170.32901001 63.58576965 C170.33445845 71.22770478 170.32729817 78.86955274 170.31298828 86.51147461 C170.29664598 95.3406166 170.30196539 104.16955092 170.3184675 112.99868792 C170.33208745 120.59042581 170.33400006 128.18210124 170.32615149 135.7738474 C170.32148003 140.3033748 170.32083597 144.83280458 170.33076096 149.36232567 C170.33943639 153.61828516 170.33339827 157.87397698 170.31607819 162.12990761 C170.31211717 163.68995851 170.31324081 165.250032 170.31986618 166.81007385 C170.32808691 168.94258861 170.31775513 171.07425015 170.30282593 173.20671082 C170.30169485 174.39888309 170.30056377 175.59105536 170.29939842 176.81935406 C169.73579253 181.70770991 168.04868933 184.97256974 164.578125 188.42578125 C159.48583924 191.45129053 153.14150502 190.79038679 147.421875 190.78125 C146.21144531 190.82185547 145.00101563 190.86246094 143.75390625 190.90429688 C135.09959157 190.93761932 135.09959157 190.93761932 131.77734375 188.55712891 C128.6293353 184.93860965 126.80594243 181.87743649 126.76365662 177.05685425 C126.74897339 175.79060715 126.74897339 175.79060715 126.73399353 174.4987793 C126.72823807 173.570896 126.7224826 172.6430127 126.71655273 171.68701172 C126.70665314 170.71136261 126.69675354 169.7357135 126.68655396 168.73049927 C126.65488189 165.49483698 126.63015898 162.25915999 126.60546875 159.0234375 C126.58490415 156.78426728 126.56390782 154.54510099 126.54249573 152.30593872 C126.48722404 146.40406467 126.43783726 140.50215529 126.38964844 134.60021973 C126.33947059 128.58110397 126.28376515 122.56203971 126.22851562 116.54296875 C126.12087172 104.72660645 126.01944062 92.91019951 125.921875 81.09375 C124.31978794 83.00809779 122.71879367 84.92334183 121.1184082 86.83911133 C120.44250011 87.64642071 120.44250011 87.64642071 119.75293732 88.47003937 C116.40340995 92.48211061 113.20207894 96.57002952 110.109375 100.78125 C109.09835326 102.14244506 108.0866079 103.50310289 107.07421875 104.86328125 C106.30440674 105.8989624 106.30440674 105.8989624 105.51904297 106.95556641 C101.18408318 112.75892591 96.76789874 118.50036672 92.34375 124.23583984 C91.09303078 125.87010723 89.8649675 127.52166098 88.640625 129.17578125 C84.53590725 134.60801684 80.47482496 139.70494413 73.921875 142.09375 C67.25964717 143.02037458 59.65919211 143.64265842 53.546875 140.34375 C44.44897911 133.21242986 37.71825838 122.2734297 30.87890625 113.0625 C26.63394519 107.34903431 22.27911906 101.72185692 17.921875 96.09375 C17.261875 95.2378125 16.601875 94.381875 15.921875 93.5 C13.3378573 90.1585978 10.73985982 86.85815415 7.984375 83.65625 C5.921875 81.09375 5.921875 81.09375 5.921875 79.09375 C5.261875 79.09375 4.601875 79.09375 3.921875 79.09375 C3.92853683 80.37303879 3.93519867 81.65232758 3.94206238 82.97038269 C4.00285439 95.0213214 4.04783854 107.07222904 4.07731152 119.12328625 C4.09297319 125.31899082 4.11422093 131.5145717 4.14819336 137.71020508 C4.18076845 143.6883548 4.19872423 149.66638546 4.20650673 155.64461708 C4.21205353 157.92640368 4.22288492 160.20818369 4.23906517 162.48991966 C4.26081446 165.68377179 4.26384292 168.87713076 4.26245117 172.07104492 C4.273237 173.01619461 4.28402283 173.9613443 4.2951355 174.93513489 C4.2721353 179.80696508 4.13032484 183.15367688 0.921875 187.09375 C-3.9714137 190.60105919 -10.77905291 189.42125935 -16.515625 189.40625 C-17.74345703 189.42236328 -18.97128906 189.43847656 -20.23632812 189.45507812 C-21.42033203 189.45572266 -22.60433594 189.45636719 -23.82421875 189.45703125 C-24.90372803 189.46001221 -25.9832373 189.46299316 -27.09545898 189.46606445 C-30.55835576 189.03380469 -32.33165381 188.23411147 -35.078125 186.09375 C-38.06776718 182.0707327 -38.45595381 179.13025553 -38.46580505 174.16838074 C-38.47119059 173.48371634 -38.47657613 172.79905195 -38.48212487 172.09364015 C-38.49639966 169.80597612 -38.48930216 167.51889114 -38.48217773 165.23120117 C-38.48788168 163.58828771 -38.49484604 161.94537822 -38.50297546 160.30247498 C-38.52092222 155.8436413 -38.5197353 151.38500427 -38.51403308 146.92614532 C-38.51094251 143.20112705 -38.51703242 139.47614662 -38.52307183 135.75113374 C-38.53712128 126.96027786 -38.5355531 118.16951913 -38.52416992 109.37866211 C-38.51269621 100.31784331 -38.52675081 91.25732076 -38.5535664 82.19654101 C-38.57574229 74.41122042 -38.58235628 66.62599268 -38.57648998 58.84064275 C-38.57312276 54.19358276 -38.57551951 49.54671254 -38.59274101 44.89967918 C-38.60823752 40.52716358 -38.60422475 36.15508554 -38.58543587 31.78258705 C-38.58175703 30.18144945 -38.58483786 28.58027925 -38.59532166 26.97917175 C-38.65114303 17.74606907 -38.61286092 10.47412432 -32.40234375 3.10546875 C-21.73159413 -5.52790624 -12.14094647 -6.03693471 0 0 Z " fill="#FD6705" transform="translate(67.078125,22.90625)"/>
<path d="M0 0 C1.58155109 1.34067357 3.09059518 2.76654455 4.57421875 4.21484375 C4.5278125 3.4671875 4.48140625 2.71953125 4.43359375 1.94921875 C4.3975 0.964375 4.36140625 -0.02046875 4.32421875 -1.03515625 C4.2778125 -2.0096875 4.23140625 -2.98421875 4.18359375 -3.98828125 C4.69010595 -7.61490858 5.72388287 -8.53888265 8.57421875 -10.78515625 C11.42749023 -11.30273438 11.42749023 -11.30273438 14.6953125 -11.31640625 C15.87802734 -11.3215625 17.06074219 -11.32671875 18.27929688 -11.33203125 C19.51099609 -11.3165625 20.74269531 -11.30109375 22.01171875 -11.28515625 C23.23955078 -11.300625 24.46738281 -11.31609375 25.73242188 -11.33203125 C26.91642578 -11.326875 28.10042969 -11.32171875 29.3203125 -11.31640625 C30.39982178 -11.31189453 31.47933105 -11.30738281 32.59155273 -11.30273438 C36.34389926 -10.6515946 37.874156 -9.44557384 40.57421875 -6.78515625 C41.21180439 -4.17243004 41.21180439 -4.17243004 41.22932434 -1.14828491 C41.24775894 0.00076828 41.26619354 1.14982147 41.28518677 2.33369446 C41.27977875 3.5907872 41.27437073 4.84787994 41.26879883 6.14306641 C41.28049001 7.48391101 41.29426048 8.82473885 41.30995178 10.1655426 C41.34558839 13.80912312 41.34906328 17.45206756 41.34464097 21.09579515 C41.34344954 24.14882249 41.35691381 27.20171849 41.37002391 30.25471246 C41.40037836 37.47491485 41.40367106 44.69479464 41.39086914 51.91503906 C41.378255 59.32249137 41.41313318 66.72862952 41.47175294 74.13583148 C41.52040449 80.5200833 41.53738315 86.9039194 41.53027838 93.28835142 C41.52643114 97.08986429 41.53406806 100.89039296 41.57288551 104.6917305 C41.76526488 125.18167983 40.74134243 143.71437669 25.57421875 159.21484375 C13.42697949 171.21484375 13.42697949 171.21484375 6.57421875 171.21484375 C6.57421875 171.87484375 6.57421875 172.53484375 6.57421875 173.21484375 C3.51311179 174.19840224 0.45010315 175.17590394 -2.61328125 176.15234375 C-3.47759766 176.43013672 -4.34191406 176.70792969 -5.23242188 176.99414062 C-6.4940918 177.39536133 -6.4940918 177.39536133 -7.78125 177.8046875 C-8.93596802 178.17388306 -8.93596802 178.17388306 -10.11401367 178.55053711 C-15.24651325 180.02540577 -20.12008112 180.39948326 -25.4453125 180.453125 C-26.22154465 180.46119675 -26.99777679 180.46926849 -27.79753113 180.47758484 C-29.44239095 180.49138557 -31.08727892 180.50212558 -32.73217773 180.51000977 C-34.38330727 180.52143015 -36.03440287 180.54172048 -37.68530273 180.5715332 C-56.24412501 180.90584227 -78.08451709 177.55992873 -93.42578125 166.21484375 C-95.61659972 163.97479341 -96.35413552 162.60832666 -96.91796875 159.51171875 C-96.21663341 154.81388522 -94.03582439 151.45597364 -91.55078125 147.46484375 C-91.09058594 146.69785156 -90.63039063 145.93085938 -90.15625 145.140625 C-86.77507673 139.56413923 -86.77507673 139.56413923 -84.42578125 137.21484375 C-77.90876941 136.37004592 -73.45338448 138.19938003 -67.52734375 140.83984375 C-64.54521265 142.16189683 -61.55047436 143.34231474 -58.48828125 144.46484375 C-57.63363281 144.779375 -56.77898438 145.09390625 -55.8984375 145.41796875 C-43.67558159 149.35708819 -25.92159659 149.94404995 -14.1171875 144.70703125 C-6.49546307 140.69559734 -0.8428867 136.25626113 2.38671875 128.15234375 C4.19938491 122.01060431 4.31178555 115.57658649 4.57421875 109.21484375 C3.91421875 109.21484375 3.25421875 109.21484375 2.57421875 109.21484375 C2.07921875 110.69984375 2.07921875 110.69984375 1.57421875 112.21484375 C-13.84575328 124.8502383 -33.30734374 126.70193813 -52.42578125 125.21484375 C-58.6437156 124.24887371 -64.54486936 122.41860141 -70.42578125 120.21484375 C-71.37453125 119.86550781 -72.32328125 119.51617187 -73.30078125 119.15625 C-88.09028153 112.68584363 -99.36003292 99.36360516 -105.30078125 84.65234375 C-106.03829414 82.51636352 -106.74798048 80.37051602 -107.42578125 78.21484375 C-107.74417969 77.26222656 -108.06257812 76.30960937 -108.390625 75.328125 C-113.45865643 58.20892204 -110.76410392 39.44333554 -102.60693359 23.78857422 C-93.1978871 6.56631679 -78.75291752 -4.51454954 -60.12060547 -10.27636719 C-39.72716265 -16.22080594 -17.18901578 -12.64956556 0 0 Z " fill="#232323" transform="translate(715.42578125,79.78515625)"/>
<path d="M0 0 C5.90425971 3.1674759 11.13104881 6.82742503 16.19140625 11.1953125 C16.145 10.44765625 16.09859375 9.7 16.05078125 8.9296875 C16.0146875 7.94484375 15.97859375 6.96 15.94140625 5.9453125 C15.895 4.97078125 15.84859375 3.99625 15.80078125 2.9921875 C16.30872771 -0.64470918 17.31345177 -1.57073431 20.19140625 -3.8046875 C23.21582031 -4.25878906 23.21582031 -4.25878906 26.70703125 -4.1953125 C27.95742188 -4.18242188 29.2078125 -4.16953125 30.49609375 -4.15625 C32.44902344 -4.10597656 32.44902344 -4.10597656 34.44140625 -4.0546875 C35.75882813 -4.03664063 37.07625 -4.01859375 38.43359375 -4 C41.68692933 -3.95285021 44.9388025 -3.88704794 48.19140625 -3.8046875 C48.19140625 -3.1446875 48.19140625 -2.4846875 48.19140625 -1.8046875 C49.18140625 -1.4746875 50.17140625 -1.1446875 51.19140625 -0.8046875 C52.47193054 1.75636108 52.3288689 3.58277993 52.3453064 6.45137024 C52.35390686 7.56597626 52.36250732 8.68058228 52.37136841 9.82896423 C52.37775833 11.6718679 52.37775833 11.6718679 52.38427734 13.55200195 C52.39654358 15.48623016 52.39654358 15.48623016 52.40905762 17.45953369 C52.43528134 21.74253243 52.45058533 26.02554097 52.46484375 30.30859375 C52.47020324 31.78258966 52.47558075 33.2565855 52.4809761 34.73058128 C52.50260512 40.86159702 52.52134217 46.99261012 52.5325985 53.12365437 C52.54884017 61.9125037 52.58202235 70.70091109 52.63899934 79.4895938 C52.67768943 85.66800518 52.69723003 91.84629831 52.70251906 98.02482766 C52.70617381 101.71566423 52.71820699 105.40602949 52.7506218 109.096735 C52.78627241 113.21490419 52.78233405 117.3321227 52.77490234 121.45043945 C52.79130768 122.67296921 52.80771301 123.89549896 52.82461548 125.15507507 C52.7564902 134.35256446 52.7564902 134.35256446 49.83660889 137.45539856 C46.65970986 139.54504221 44.90270856 139.79054173 41.12109375 139.71875 C39.97769531 139.70714844 38.83429688 139.69554687 37.65625 139.68359375 C36.47160156 139.64621094 35.28695312 139.60882813 34.06640625 139.5703125 C32.87402344 139.55613281 31.68164062 139.54195312 30.453125 139.52734375 C21.74469866 139.3797433 21.74469866 139.3797433 18.19140625 138.1953125 C15.91077797 134.77437008 15.97215618 133.51344028 16.06640625 129.5078125 C16.08445312 128.51394531 16.1025 127.52007812 16.12109375 126.49609375 C16.14429688 125.73683594 16.1675 124.97757813 16.19140625 124.1953125 C15.58554687 124.71480469 14.9796875 125.23429688 14.35546875 125.76953125 C1.15854295 136.75343411 -11.2245633 140.37184785 -28.12109375 140.3828125 C-29.10271484 140.39505859 -30.08433594 140.40730469 -31.09570312 140.41992188 C-48.97216863 140.45541453 -65.01011532 133.87918737 -77.99609375 121.5078125 C-85.68159837 113.45574963 -91.14021178 104.67380952 -94.80859375 94.1953125 C-95.14890625 93.3909375 -95.48921875 92.5865625 -95.83984375 91.7578125 C-102.3303466 74.58938561 -100.31888564 52.34137232 -92.92578125 35.84765625 C-84.13509058 17.51359865 -70.35896018 4.77947114 -51.10083008 -2.04248047 C-49.34140147 -2.64366798 -47.57536038 -3.22541975 -45.80859375 -3.8046875 C-32.97417855 -8.0828259 -12.00501977 -5.97055736 0 0 Z " fill="#222222" transform="translate(359.80859375,72.8046875)"/>
<path d="M0 0 C1.03447266 0.69222656 1.03447266 0.69222656 2.08984375 1.3984375 C12.27853152 9.02262563 16.97474799 21.87728343 19 34 C19.70967348 41.25845376 19.5890122 48.56651816 19.56640625 55.8515625 C19.57165224 57.92565182 19.57793227 59.99973876 19.58518982 62.07382202 C19.59552498 66.3886857 19.59112449 70.70321803 19.57641602 75.01806641 C19.55911496 80.54518908 19.58289841 86.07128309 19.61790562 91.5982914 C19.63984436 95.86712517 19.63844873 100.13571048 19.6301403 104.40458298 C19.62932123 106.44353754 19.63617622 108.48251041 19.65091133 110.5214119 C19.66832035 113.36209529 19.65385232 116.20089658 19.63110352 119.04150391 C19.64279572 119.87893127 19.65448792 120.71635864 19.66653442 121.5791626 C19.59651465 125.87380142 19.37376031 127.52107548 16.64123535 131.02244568 C13.47374551 133.39401898 11.88557286 133.60943324 7.96484375 133.55859375 C6.25651367 133.54795898 6.25651367 133.54795898 4.51367188 133.53710938 C2.7434668 133.48780273 2.7434668 133.48780273 0.9375 133.4375 C-0.24650391 133.43169922 -1.43050781 133.42589844 -2.65039062 133.41992188 C-12.90171297 133.27471901 -12.90171297 133.27471901 -16 131 C-18.26122967 126.7181359 -18.27532508 122.60897039 -18.23950195 117.88012695 C-18.24151611 117.07615982 -18.24353027 116.27219269 -18.24560547 115.44386292 C-18.24914295 113.70276037 -18.24839379 111.96164497 -18.24382973 110.22054482 C-18.23821862 107.45744247 -18.24742585 104.69475717 -18.2610321 101.9316864 C-18.2980765 94.07724172 -18.31673419 86.22293787 -18.30541992 78.3684082 C-18.29954184 73.55782655 -18.31796191 68.74783061 -18.35130882 63.93736839 C-18.35922283 62.11190618 -18.35804055 60.28637945 -18.34728432 58.46093178 C-18.24278414 43.18084696 -18.24278414 43.18084696 -25.64619446 30.1164093 C-31.76231918 23.95027102 -39.70997747 22.84151746 -48.0625 22.5625 C-54.24508266 22.71002366 -58.73534027 23.79496763 -64 27 C-64.63550781 27.36222656 -65.27101563 27.72445312 -65.92578125 28.09765625 C-72.65098473 32.34591113 -75.72590168 38.18000721 -77.57544518 45.79106903 C-78.24924953 49.29682897 -78.26756897 52.72022892 -78.23950195 56.28027344 C-78.24151611 57.06505569 -78.24353027 57.84983795 -78.24560547 58.65840149 C-78.24912701 60.34708048 -78.24841374 62.03577272 -78.24382973 63.72444916 C-78.23820005 66.39793478 -78.24745207 69.07099251 -78.2610321 71.7444458 C-78.29802569 79.33990583 -78.31665808 86.93521392 -78.30541992 94.53076172 C-78.29957419 99.18917168 -78.31779227 103.84697121 -78.35130882 108.50525665 C-78.35926378 110.27706446 -78.3579845 112.04893876 -78.34728432 113.82073212 C-78.33298033 116.29360225 -78.34919749 118.76454167 -78.37231445 121.23730469 C-78.35466286 122.33299522 -78.35466286 122.33299522 -78.33665466 123.45082092 C-78.40536154 127.19445258 -78.72067426 128.70904195 -81.35380554 131.451828 C-86.34198861 134.37019454 -91.86640027 133.61295901 -97.5 133.5625 C-98.72332031 133.58634766 -99.94664062 133.61019531 -101.20703125 133.63476562 C-102.38652344 133.63283203 -103.56601562 133.63089844 -104.78125 133.62890625 C-106.3909668 133.6299939 -106.3909668 133.6299939 -108.03320312 133.63110352 C-111.09594967 132.97958938 -112.79709299 132.15538378 -114.94812393 129.86900234 C-117.38591457 125.53746886 -116.68708263 120.12892232 -116.64697266 115.30273438 C-116.65573425 114.01281082 -116.66449585 112.72288727 -116.67352295 111.39387512 C-116.69628455 107.86271661 -116.68749375 104.33228987 -116.67162752 100.80111885 C-116.65895188 97.1025409 -116.67071323 93.4040248 -116.67855835 89.70544434 C-116.68765014 83.49475883 -116.67567964 77.28437079 -116.65185547 71.07373047 C-116.62464472 63.89746878 -116.63345924 56.72191737 -116.6609875 49.54567289 C-116.68369126 43.37987811 -116.68687257 37.21429692 -116.67379415 31.04847383 C-116.66600645 27.36782472 -116.66493883 23.68750927 -116.68147659 20.00688171 C-116.69862767 15.90324977 -116.67484551 11.80083859 -116.64697266 7.69726562 C-116.65709381 6.47944901 -116.66721497 5.26163239 -116.67764282 4.00691223 C-116.56219963 -5.1532162 -116.56219963 -5.1532162 -113.63825989 -8.25413513 C-110.51348629 -10.32194978 -108.76280265 -10.63154353 -105.03515625 -10.62890625 C-103.90529297 -10.63083984 -102.77542969 -10.63277344 -101.61132812 -10.63476562 C-99.8546582 -10.59899414 -99.8546582 -10.59899414 -98.0625 -10.5625 C-96.89525391 -10.57345703 -95.72800781 -10.58441406 -94.52539062 -10.59570312 C-85.02699118 -10.51452022 -85.02699118 -10.51452022 -81.23828125 -8.29296875 C-78.63573145 -5.62683134 -78.22176112 -4.42692268 -78.125 -0.75 C-78.06699219 0.58804688 -78.06699219 0.58804688 -78.0078125 1.953125 C-78.00394531 2.96632813 -78.00394531 2.96632813 -78 4 C-77.50371094 3.54109375 -77.00742187 3.0821875 -76.49609375 2.609375 C-72.28271668 -1.19625591 -68.18905926 -4.61057153 -63 -7 C-61.89785156 -7.55880859 -61.89785156 -7.55880859 -60.7734375 -8.12890625 C-41.20927676 -16.41049051 -16.76176665 -11.81305459 0 0 Z " fill="#232322" transform="translate(559,79)"/>
<path d="M0 0 C1.18271484 -0.00515625 2.36542969 -0.0103125 3.58398438 -0.015625 C5.4315332 0.00757812 5.4315332 0.00757812 7.31640625 0.03125 C8.54423828 0.01578125 9.77207031 0.0003125 11.03710938 -0.015625 C12.22111328 -0.01046875 13.40511719 -0.0053125 14.625 0 C15.70450928 0.00451172 16.78401855 0.00902344 17.89624023 0.01367188 C21.5769196 0.65237534 23.24783453 1.92117953 25.87890625 4.53125 C26.88889355 7.56121191 27.01417411 9.61672685 27.0328064 12.78694153 C27.04140686 13.87623459 27.05000732 14.96552765 27.05886841 16.08782959 C27.06312836 17.2832135 27.06738831 18.47859741 27.07177734 19.71020508 C27.08404358 21.59835182 27.08404358 21.59835182 27.09655762 23.52464294 C27.12274599 27.70000068 27.13808092 31.87536829 27.15234375 36.05078125 C27.15770453 37.48915806 27.16308204 38.9275348 27.1684761 40.36591148 C27.19009915 46.34941775 27.20883569 52.33292136 27.2200985 58.31645679 C27.23633814 66.88701544 27.26952221 75.45712079 27.32649934 84.02750856 C27.36521259 90.05648771 27.38473272 96.08534569 27.39001906 102.11444587 C27.39367037 105.71420191 27.4056672 109.31347414 27.4381218 112.91309547 C27.47382393 116.93037461 27.46982819 120.94668039 27.46240234 124.96411133 C27.47880768 126.15342255 27.49521301 127.34273376 27.51211548 128.56808472 C27.44398578 137.55885435 27.44398578 137.55885435 24.53459167 141.26916504 C21.2736756 144.04677911 19.65203737 144.29144357 15.40625 144.29296875 C14.17712891 144.29619141 12.94800781 144.29941406 11.68164062 144.30273438 C9.76834961 144.26116211 9.76834961 144.26116211 7.81640625 144.21875 C5.89731445 144.24098633 5.89731445 144.24098633 3.93945312 144.26367188 C-5.48320928 144.17958512 -5.48320928 144.17958512 -8.27341461 141.34366703 C-10.36141938 138.16544195 -10.62323705 136.62673264 -10.62902832 132.86973572 C-10.64030762 131.74114639 -10.65158691 130.61255707 -10.66320801 129.44976807 C-10.65106262 127.60666046 -10.65106262 127.60666046 -10.63867188 125.72631836 C-10.64568115 124.42503494 -10.65269043 123.12375153 -10.65991211 121.78303528 C-10.67812073 118.2210408 -10.67108897 114.65951061 -10.65839577 111.09750819 C-10.6482573 107.36777304 -10.65766359 103.6380772 -10.66394043 99.90834045 C-10.6712135 93.64642204 -10.66163726 87.38469247 -10.64257812 81.12280273 C-10.62080035 73.88412576 -10.62786838 66.64589928 -10.64988375 59.40723318 C-10.66803625 53.18967233 -10.67059715 46.97224708 -10.66012907 40.7546683 C-10.65389446 37.04223626 -10.65305759 33.330016 -10.66627502 29.61759758 C-10.67997665 25.48038928 -10.66098652 21.34395779 -10.63867188 17.20678711 C-10.6467688 15.97602448 -10.65486572 14.74526184 -10.66320801 13.47720337 C-10.65192871 12.35143387 -10.64064941 11.22566437 -10.62902832 10.06578064 C-10.62752022 9.08779983 -10.62601212 8.10981901 -10.62445831 7.10220242 C-9.45703042 1.13952291 -5.51369098 0.02306811 0 0 Z " fill="#232222" transform="translate(804.12109375,68.46875)"/>
<path d="M0 0 C9.64963036 6.1137804 15.5946675 14.24438678 18.53515625 25.29296875 C20.95328038 39.37498574 17.16804783 51.06747593 10 63 C4.60781887 69.7993512 -4.42498854 74.94103601 -12.97363281 76.31787109 C-24.26901352 77.39426719 -34.98420078 75.17165847 -44 68 C-51.22569279 61.58550765 -51.22569279 61.58550765 -52 57 C-52.66 57 -53.32 57 -54 57 C-58.8585584 44.91867397 -60.68945159 30.90456401 -56.0625 18.4375 C-50.81513083 7.88363638 -43.03507183 1.24626111 -32.2734375 -3.1015625 C-22.04684556 -5.90838368 -9.2696987 -5.21696875 0 0 Z " fill="#FAFAFA" transform="translate(357,105)"/>
<path d="M0 0 C0.93328125 -0.01224609 1.8665625 -0.02449219 2.828125 -0.03710938 C13.88527051 -0.06060189 22.72652511 4.09195167 30.625 11.875 C33.88940496 15.28850038 35.625 17.23746909 35.625 22.1875 C36.285 22.1875 36.945 22.1875 37.625 22.1875 C38.91902908 26.06958725 38.81577166 29.76627436 38.8125 33.8125 C38.81314453 34.62122559 38.81378906 35.42995117 38.81445312 36.26318359 C38.76507527 41.83502602 38.21513711 46.82078727 36.625 52.1875 C35.965 52.1875 35.305 52.1875 34.625 52.1875 C34.41875 52.868125 34.2125 53.54875 34 54.25 C29.78911352 63.24598475 22.45265291 67.15004634 13.625 71.1875 C3.30973492 74.22231658 -9.95646393 73.30041958 -19.375 68.1875 C-22.29252276 66.41450456 -24.84839465 64.48088024 -27.375 62.1875 C-27.93058594 61.68605469 -28.48617187 61.18460938 -29.05859375 60.66796875 C-35.73574311 53.82430694 -37.59107052 44.92842267 -37.875 35.625 C-37.50676019 24.68939357 -34.49309547 17.31741976 -26.88671875 9.421875 C-18.27972333 1.76526321 -11.15293317 0.007639 0 0 Z " fill="#FBFAFB" transform="translate(680.375,100.8125)"/>
<path d="M0 0 C7.48098782 3.35434123 12.09119357 8.92458086 15.53515625 16.26171875 C17.17503255 24.82551719 15.63409657 31.66392086 10.9296875 39.02734375 C7.33170768 43.63834702 2.88412274 47.10475574 -2.90234375 48.19921875 C-11.08605099 49.0134667 -17.85858107 48.96817316 -24.7734375 44.18359375 C-31.14761193 38.24216143 -33.96802783 31.11471787 -34.33984375 22.57421875 C-34.25758998 15.8294096 -32.33722124 11.26379487 -27.90234375 6.19921875 C-19.41865077 -0.77815688 -10.90128968 -3.00775826 0 0 Z " fill="#FC6808" transform="translate(821.90234375,2.80078125)"/>
<path d="M0 0 C0.66 0 1.32 0 2 0 C3.7143618 1.95927063 5.38405168 3.95880212 7 6 C6.67 6.66 6.34 7.32 6 8 C4.68 7.34 3.36 6.68 2 6 C2.00222061 7.18128479 2.00444122 8.36256958 2.00672913 9.57965088 C2.02698734 20.70380941 2.0419851 31.82796421 2.05181217 42.95213699 C2.05703417 48.6713869 2.06411947 54.39062193 2.07543945 60.10986328 C2.08629253 65.6276438 2.092282 71.14541001 2.09487724 76.66320038 C2.09672711 78.76995825 2.10033936 80.87671532 2.10573006 82.9834671 C2.11297255 85.93072717 2.11398958 88.8779278 2.11352539 91.82519531 C2.11712067 92.69913437 2.12071594 93.57307343 2.12442017 94.47349548 C2.1230455 95.27833878 2.12167084 96.08318207 2.12025452 96.91241455 C2.12163721 97.95772779 2.12163721 97.95772779 2.12304783 99.02415848 C1.99260148 101.11880174 1.56916831 102.98383566 1 105 C0.34 105 -0.32 105 -1 105 C-0.67 70.35 -0.34 35.7 0 0 Z " fill="#FDCCAE" transform="translate(71,102)"/>
<path d="M0 0 C0.33 0 0.66 0 1 0 C1.0740421 5.09029944 1.12855008 10.18028692 1.16479492 15.27099609 C1.1799009 17.00347349 1.20038694 18.73591254 1.22631836 20.46826172 C1.26262321 22.95549978 1.27970765 25.44223326 1.29296875 27.9296875 C1.30845261 28.70682098 1.32393646 29.48395447 1.33988953 30.28463745 C1.34057617 32.46826172 1.34057617 32.46826172 1 36 C0.01 36.66 -0.98 37.32 -2 38 C-2.495 36.515 -2.495 36.515 -3 35 C-2.34 34.34 -1.68 33.68 -1 33 C-0.75484303 30.49624532 -0.62666342 28.09450521 -0.5859375 25.5859375 C-0.56657135 24.85629791 -0.5472052 24.12665833 -0.5272522 23.37490845 C-0.46741578 21.04172498 -0.42105577 18.70849227 -0.375 16.375 C-0.33682386 14.79424918 -0.29777235 13.21351924 -0.2578125 11.6328125 C-0.16171122 7.7553777 -0.07769588 3.87784551 0 0 Z " fill="#313130" transform="translate(479,172)"/>
<path d="M0 0 C1.98 1.65 3.96 3.3 6 5 C5.67 5.66 5.34 6.32 5 7 C3.68 6.34 2.36 5.68 1 5 C1 11.27 1 17.54 1 24 C0.67 24 0.34 24 0 24 C0 16.08 0 8.16 0 0 Z " fill="#FDEEE6" transform="translate(72,103)"/>
<path d="M0 0 C-0.33 1.32 -0.66 2.64 -1 4 C-8.425 3.01 -8.425 3.01 -16 2 C-16 1.67 -16 1.34 -16 1 C-10.59255982 0.22750855 -5.46137814 -0.09752461 0 0 Z " fill="#FDE9DA" transform="translate(825,0)"/>
<path d="M0 0 C0.33 1.32 0.66 2.64 1 4 C-0.3984375 5.8515625 -0.3984375 5.8515625 -2.375 7.625 C-5.07364855 10.01777659 -5.07364855 10.01777659 -7 13 C-7.66 12.67 -8.32 12.34 -9 12 C-6.03 8.04 -3.06 4.08 0 0 Z " fill="#FB772B" transform="translate(191,31)"/>
<path d="M0 0 C0.66 0.33 1.32 0.66 2 1 C-1.3 4.3 -4.6 7.6 -8 11 C-8 6.67750434 -5.85084926 5.11604454 -3 2 C-2.01 1.34 -1.02 0.68 0 0 Z " fill="#D5D4D5" transform="translate(493,106)"/>
<path d="M0 0 C3.3 0 6.6 0 10 0 C9.67 0.66 9.34 1.32 9 2 C6.6739143 2.38063221 4.33944736 2.71269945 2 3 C1.01 3.495 1.01 3.495 0 4 C0 2.68 0 1.36 0 0 Z " fill="#FEE9D6" transform="translate(808,51)"/>
<path d="M0 0 C1.98 1.65 3.96 3.3 6 5 C5.67 5.66 5.34 6.32 5 7 C2.5 5.75 2.5 5.75 0 4 C0 2.68 0 1.36 0 0 Z " fill="#FDE8D7" transform="translate(72,103)"/>
<path d="M0 0 C0.33 0.99 0.66 1.98 1 3 C-0.8125 5.6875 -0.8125 5.6875 -3 8 C-3.66 8 -4.32 8 -5 8 C-3.62845496 5.04590299 -2.01136276 2.55991624 0 0 Z " fill="#FD7C2E" transform="translate(167,63)"/>
</svg>
