<?xml version="1.0" encoding="UTF-8"?>
<svg version="1.1" xmlns="http://www.w3.org/2000/svg" width="1254" height="1254">
<path d="M0 0 C413.82 0 827.64 0 1254 0 C1254 413.82 1254 827.64 1254 1254 C840.18 1254 426.36 1254 0 1254 C0 840.18 0 426.36 0 0 Z " fill="#FD6302" transform="translate(0,0)"/>
<path d="M0 0 C413.82 0 827.64 0 1254 0 C1254 413.82 1254 827.64 1254 1254 C840.18 1254 426.36 1254 0 1254 C0 840.18 0 426.36 0 0 Z M256 156 C255.04222656 156.44472656 254.08445312 156.88945312 253.09765625 157.34765625 C233.55058959 166.54469859 216.05740904 179.58369779 201 195 C198.50710025 197.50407867 196.00789271 199.99243464 193.45703125 202.4375 C172.86424418 222.39151524 155.86579738 249.76280806 147 277 C146.73912598 277.74991211 146.47825195 278.49982422 146.20947266 279.27246094 C136.3441943 307.7428747 133.84344652 336.93911562 133.86628723 366.87158203 C133.86441716 369.19834778 133.86211567 371.52511322 133.85942191 373.85187817 C133.8533217 380.22385651 133.85343541 386.59582169 133.85461628 392.96780229 C133.85528692 399.14131521 133.85030396 405.31482502 133.8460034 411.48833606 C133.83635029 425.66922586 133.83351991 439.85011203 133.83294634 454.03100473 C133.83248612 464.98684679 133.83042424 475.94268745 133.82724571 486.89852905 C133.82634811 490.05658372 133.8254583 493.21463839 133.82457083 496.37269306 C133.82434979 497.15788612 133.82412874 497.94307917 133.82390099 498.75206596 C133.8177497 520.82811362 133.81380013 542.90416079 133.81424427 564.98020935 C133.81425985 565.8119376 133.81427543 566.64366585 133.81429148 567.50059799 C133.81437458 571.71576038 133.81447362 575.93092276 133.81457619 580.14608514 C133.81459613 580.98317049 133.81461608 581.82025584 133.81463663 582.68270741 C133.81467706 584.37549769 133.81471886 586.06828797 133.81476202 587.76107825 C133.81537449 614.08600431 133.80787218 640.41091748 133.79418945 666.73583984 C133.77880833 696.34030674 133.77022447 725.94476516 133.77115268 755.5492363 C133.7712273 758.70980581 133.77127601 761.87037531 133.77130699 765.03094482 C133.77131865 765.80910446 133.7713303 766.58726409 133.77134231 767.38900432 C133.771373 779.87831512 133.76500385 792.36761468 133.75637473 804.85692214 C133.74787232 817.42331134 133.74692847 829.98968419 133.75348405 842.55607468 C133.7568405 849.35557673 133.75683364 856.1550359 133.7481308 862.95453453 C133.74023094 869.19106465 133.74173264 875.42752239 133.75041493 881.66405082 C133.75194228 883.90830129 133.75016297 886.15255725 133.74455485 888.39680123 C133.70354206 905.98825327 134.40862478 923.55639794 137.75 940.875 C138.00704712 942.2211438 138.00704712 942.2211438 138.26928711 943.59448242 C138.82257677 946.40182497 139.40416766 949.20139356 140 952 C140.1954541 952.92538574 140.3909082 953.85077148 140.59228516 954.80419922 C147.37129943 985.86705336 162.48220449 1015.71512261 183 1040 C183.45133301 1040.54011719 183.90266602 1041.08023438 184.36767578 1041.63671875 C200.74214858 1061.21477531 219.51743968 1078.40017157 241.93896484 1090.84912109 C243.37115833 1091.64885576 244.79549172 1092.46276454 246.21337891 1093.28759766 C267.9838055 1105.92599655 292.11876833 1113.49788332 316.91724002 1117.49775296 C318.88103104 1117.8176962 320.84191911 1118.15642745 322.79812348 1118.51988763 C334.36224028 1120.47528994 345.88407872 1120.28169257 357.57907104 1120.26069641 C359.97055942 1120.26372012 362.36204682 1120.26761071 364.75353253 1120.27228898 C369.93603019 1120.28041207 375.11849176 1120.28237742 380.30099297 1120.27878571 C388.0083349 1120.2734584 395.71563884 1120.27959445 403.42297665 1120.28786864 C417.99397037 1120.30308206 432.56494667 1120.30481631 447.13594668 1120.30234561 C458.39446753 1120.30051007 469.6529827 1120.30227804 480.91150284 1120.30657005 C482.53136008 1120.30717247 484.15121733 1120.30777367 485.77107457 1120.30837366 C488.21235882 1120.30928096 490.65364307 1120.31018963 493.09492732 1120.31110601 C515.78506083 1120.31953208 538.47519221 1120.32387378 561.16532707 1120.31969929 C562.02013942 1120.31954291 562.87495176 1120.31938654 563.75566751 1120.31922542 C568.08775997 1120.31841969 572.41985243 1120.31757392 576.75194488 1120.31671212 C577.61224134 1120.31654103 578.47253779 1120.31636994 579.35890383 1120.31619367 C581.09863307 1120.31584701 582.83836231 1120.31549848 584.57809156 1120.31514808 C611.62824582 1120.30979484 638.67836745 1120.31771142 665.72851562 1120.33618164 C696.15338595 1120.35693207 726.57823607 1120.3676183 757.00311387 1120.36360615 C760.25218908 1120.36321084 763.50126429 1120.36284929 766.75033951 1120.36250877 C767.55028078 1120.36241804 768.35022205 1120.36232731 769.17440397 1120.36223383 C781.21346489 1120.36107128 793.25250532 1120.36769023 805.29156113 1120.37832069 C818.99898896 1120.39041235 832.70637186 1120.39188648 846.4138004 1120.37953053 C853.40001886 1120.37351373 860.38615748 1120.372095 867.37236977 1120.38453293 C873.78298788 1120.39545188 880.1934458 1120.39221737 886.60405661 1120.37827124 C888.90822211 1120.37564071 891.2124004 1120.37793833 893.51655327 1120.38600711 C912.87499417 1120.44902593 932.03685679 1118.88655664 951 1114.8125 C951.96873047 1114.6060083 952.93746094 1114.3995166 953.93554688 1114.18676758 C970.36476368 1110.50923603 986.37328159 1105.18386709 1001.13330078 1097.02978516 C1003.05518093 1095.96955883 1004.99277153 1094.94304755 1006.93359375 1093.91796875 C1032.76893648 1080.06295353 1056.22130719 1060.34056236 1074 1037 C1074.41137207 1036.47567383 1074.82274414 1035.95134766 1075.24658203 1035.41113281 C1098.24299855 1006.05943581 1112.50289714 971.0221189 1117.54922086 934.17983598 C1117.84335771 932.10496858 1118.16214131 930.03340299 1118.508825 927.96666604 C1120.35173774 916.1694075 1120.28236445 904.45933223 1120.26069641 892.54191589 C1120.26372076 890.17573864 1120.26761166 887.80956237 1120.27228898 885.44338781 C1120.28146985 879.64812606 1120.28143123 873.85291674 1120.27737736 868.05765035 C1120.27303251 861.10809079 1120.28032628 854.15855518 1120.28786864 847.20900009 C1120.30307667 832.80109891 1120.30481685 818.39321536 1120.30234561 803.98530784 C1120.30050953 792.85173274 1120.30227918 781.71816338 1120.30657005 770.584589 C1120.30717247 768.98227227 1120.30777367 767.37995553 1120.30837366 765.7776388 C1120.30928097 763.36273423 1120.31018964 760.94782967 1120.31110601 758.53292511 C1120.31953133 736.08964129 1120.32387432 713.64635963 1120.31969929 691.20307446 C1120.31954291 690.35767573 1120.31938654 689.512277 1120.31922542 688.64126012 C1120.3184197 684.35695371 1120.31757393 680.0726473 1120.31671212 675.78834089 C1120.31654103 674.93754681 1120.31636994 674.08675273 1120.31619367 673.21017701 C1120.31584701 671.48966384 1120.31549848 669.76915067 1120.31514808 668.0486375 C1120.30979547 641.30039698 1120.31770993 614.55218945 1120.33618164 587.80395508 C1120.35693789 557.71269744 1120.36761715 527.62146025 1120.36360615 497.53019506 C1120.36321085 494.31592485 1120.3628493 491.10165463 1120.36250877 487.88738441 C1120.36241804 487.09602339 1120.36232731 486.30466237 1120.36223383 485.48932071 C1120.36107186 473.58559122 1120.36768578 461.68188249 1120.37832069 449.77815819 C1120.39041969 436.22232652 1120.39187817 422.6665403 1120.37953053 409.1107079 C1120.37351884 402.20321977 1120.37208024 395.29581233 1120.38453293 388.38833046 C1120.39546874 382.04734631 1120.39219782 375.70652392 1120.37827124 369.3655471 C1120.37564526 367.08896658 1120.37792357 364.81237305 1120.38600711 362.53580537 C1120.50878036 325.33440269 1115.25757011 286.7461516 1096.96630859 253.77099609 C1095.98197833 251.9669709 1095.05833766 250.14142776 1094.14453125 248.30078125 C1086.51481417 233.10883159 1076.30001222 219.64161976 1065 207 C1064.26499268 206.17242187 1064.26499268 206.17242187 1063.51513672 205.328125 C1037.63722032 176.31424766 1004.35168848 154.98181847 967 144 C965.52984403 143.54590913 964.05979275 143.09147916 962.58984375 142.63671875 C952.80219657 139.6915355 943.06501463 137.9159321 932.9375 136.578125 C929 136 929 136 927 135 C915.47701378 133.21124498 903.51060093 133.85758233 891.89353943 133.86628723 C889.52908815 133.86441757 887.16463718 133.86211625 884.80018669 133.85942191 C878.99778948 133.85395563 873.19540466 133.85311943 867.39300529 133.85428276 C860.43765049 133.85542272 853.4823025 133.85077012 846.52694967 133.8460034 C832.10700291 133.83634667 817.68705971 133.83351977 803.2671101 133.83294634 C792.12768381 133.83248626 780.98825892 133.83042513 769.84883308 133.82724571 C766.63880811 133.82634812 763.42878314 133.82545831 760.21875817 133.82457083 C759.42066364 133.82434979 758.62256912 133.82412874 757.80028992 133.82390099 C735.35950502 133.81774912 712.91872061 133.81380019 690.47793484 133.81424427 C689.63234439 133.81425985 688.78675394 133.81427543 687.91553954 133.81429148 C683.63004147 133.81437458 679.34454339 133.81447362 675.05904531 133.81457619 C673.7824455 133.8146061 673.7824455 133.8146061 672.48005579 133.81463663 C670.75899217 133.81467706 669.03792855 133.81471886 667.31686493 133.81476202 C640.5490471 133.81537456 613.78124194 133.80787106 587.01342773 133.79418945 C556.91713499 133.7788128 526.82085057 133.77022419 496.72455364 133.77115268 C493.51232819 133.7712273 490.30010273 133.77127601 487.08787727 133.77130699 C485.90154327 133.77132447 485.90154327 133.77132447 484.69124293 133.77134231 C471.99041014 133.77137302 459.28958841 133.7650003 446.5887589 133.75637473 C433.81280355 133.74787789 421.03686427 133.74692415 408.26090764 133.75348405 C401.34622217 133.75684347 394.431573 133.75708837 387.51689148 133.7481308 C381.17741962 133.74024354 374.83801904 133.74171995 368.49854887 133.75041493 C366.21460046 133.75194502 363.93064667 133.75015243 361.64670461 133.74455485 C325.20752287 133.6612182 288.74406615 139.24628762 256 156 Z " fill="#FDFDFD" transform="translate(0,0)"/>
<path d="M0 0 C1.02416016 -0.00322266 2.04832031 -0.00644531 3.10351562 -0.00976562 C21.30425729 0.11816291 38.18989343 7.18359588 51.45703125 19.69140625 C55.26145195 23.71151064 58.60303143 28.03740322 61.953125 32.4375 C65.17058266 36.65527087 68.54768504 40.73285701 71.9375 44.8125 C76.65285376 50.50471947 81.28312091 56.25015945 85.82861328 62.07861328 C90.88735751 68.55373212 96.08550403 74.91416436 101.28027344 81.28027344 C104.54552746 85.2843946 107.80063943 89.29676393 111.05761719 93.30761719 C113.78764003 96.66878318 116.52015748 100.02785888 119.2578125 103.3828125 C124.92507162 110.33330339 130.54096789 117.31679066 136.06176758 124.38427734 C138.74649933 127.81560997 141.47418155 131.20391303 144.25 134.5625 C148.80432319 140.09274959 153.18579213 145.75068461 157.57128906 151.41479492 C161.33641144 156.27176237 165.14389566 161.09003894 169 165.875 C173.27728794 171.18397408 177.4417631 176.56874947 181.5625 182 C186.05686661 187.91960361 190.67830377 193.67528778 195.47265625 199.35546875 C203.29613554 208.74116419 210.65972211 218.50097722 217.9375 228.3125 C222.50094908 226.78063798 224.64570021 222.99487722 227.3125 219.25 C231.77785984 213.13049246 236.40405189 207.19791718 241.25 201.375 C245.30216401 196.49891591 249.32596916 191.61948767 253.1875 186.58984375 C255.47992714 183.60661826 257.80117437 180.64627502 260.125 177.6875 C260.58898193 177.09662598 261.05296387 176.50575195 261.53100586 175.89697266 C265.56954116 170.7630199 269.65036979 165.66351795 273.73706055 160.56787109 C276.3281006 157.33424634 278.90326416 154.09101384 281.4375 150.8125 C284.98599436 146.22185075 288.61981958 141.70096771 292.25170898 137.17626953 C295.24146013 133.44708762 298.20489406 129.69950569 301.14257812 125.92919922 C305.66525418 120.12618285 310.30818716 114.45510437 315.08740234 108.86157227 C318.2604739 105.13982137 321.30591778 101.34540677 324.28125 97.46484375 C327.43675025 93.36418187 330.69857109 89.34734318 333.9375 85.3125 C335.87605418 82.89667687 337.81349547 80.47996644 339.75 78.0625 C340.26119385 77.42449463 340.7723877 76.78648926 341.29907227 76.12915039 C344.74901931 71.81658129 348.16278609 67.47721474 351.5625 63.125 C355.8064296 57.69738935 360.17061703 52.38988035 364.6015625 47.11328125 C366.76727485 44.51659939 368.8928756 41.89431619 371 39.25 C371.64195312 38.445625 372.28390625 37.64125 372.9453125 36.8125 C374.33832793 35.0644022 375.72874239 33.31423003 377.1171875 31.5625 C389.44908657 16.20096483 403.79106405 3.65438598 423.9375 0.3125 C427.94175134 0.03855662 431.92527895 0.03270628 435.9375 0.0625 C437.49984375 0.05089844 437.49984375 0.05089844 439.09375 0.0390625 C456.33529668 0.08260176 472.52426194 7.09021538 485.0625 18.875 C493.39199938 27.6024054 499.56532497 37.6933477 502.9375 49.3125 C503.29070313 50.44042969 503.64390625 51.56835938 504.0078125 52.73046875 C504.90106137 56.17210408 505.23615308 59.14479985 505.375 62.6875 C505.75134938 69.52899409 506.50893658 76.26670447 507.375 83.0625 C508.66677732 93.30690333 509.53024198 103.53917767 510.23803711 113.83886719 C510.74147271 121.03260041 511.43548421 128.13734117 512.41162109 135.28344727 C512.96189595 139.41135085 513.42146615 143.54591517 513.85546875 147.6875 C513.94088425 148.50101929 514.02629974 149.31453857 514.11430359 150.15270996 C515.03895461 159.0951666 515.83378809 168.04898371 516.63769531 177.00292969 C518.56215956 198.43619377 520.65816509 219.82689643 523.32543945 241.18164062 C524.37896428 249.71892499 525.16142207 258.19083387 525.56735229 266.78393555 C525.9394701 274.26456301 526.84254155 281.63500992 527.8125 289.0625 C528.17524841 291.93562233 528.53163975 294.80951445 528.88671875 297.68359375 C528.97578995 298.4025029 529.06486115 299.12141205 529.15663147 299.86210632 C531.29202795 317.22541226 533.08846413 334.62545919 533.7265625 352.11328125 C533.84079202 354.9756412 534.09069523 357.78217773 534.44140625 360.625 C536.92048878 381.80468937 535.19517841 401.78310302 521.609375 418.99511719 C518.56181116 422.61837954 515.30194366 425.98379398 511.9375 429.3125 C511.36644531 429.90546875 510.79539062 430.4984375 510.20703125 431.109375 C494.46379277 446.16460563 473.24208922 447.93145444 452.65625 447.6171875 C445.1392691 447.36703495 438.86548953 446.41209481 431.9375 443.3125 C431.03717041 442.91780518 431.03717041 442.91780518 430.11865234 442.51513672 C413.57114571 435.07696724 399.97483766 422.27875183 392.9375 405.3125 C390.03020026 397.62012162 388.23745655 390.3541554 387.46484375 382.1796875 C387.35011215 381.08856659 387.23538055 379.99744568 387.11717224 378.8732605 C386.85844838 376.4028561 386.6056066 373.93183097 386.35760498 371.46032715 C385.90192317 366.92467733 385.41472625 362.39257133 384.92626953 357.86035156 C383.86626045 348.00206648 382.82886042 338.1414889 381.79745483 328.28017426 C381.49729887 325.41168619 381.1964573 322.54327064 380.89550781 319.67486572 C378.42509147 296.11206605 375.99440198 272.5499063 373.99047852 248.94189453 C373.88830772 247.75143524 373.88830772 247.75143524 373.78407288 246.53692627 C373.61084867 244.50523253 373.44283411 242.4730963 373.27539062 240.44091797 C373.00654832 237.95179563 372.64054533 235.70659372 371.9375 233.3125 C364.46474118 241.87094557 357.07807266 250.47305504 349.9375 259.3125 C342.90486018 267.97000967 335.73556908 276.50228931 328.50537109 284.99462891 C323.24896221 291.16925046 318.05455383 297.37650535 313.01953125 303.734375 C310.60665824 306.72217273 308.11950298 309.6430302 305.625 312.5625 C301.80197224 317.04109276 298.10898636 321.59743566 294.5 326.25 C290.22859843 331.75297624 285.78275824 337.07232161 281.21386719 342.33032227 C278.28487025 345.70842569 275.48035385 349.14454084 272.75 352.6875 C262.08906371 366.0629252 247.04317392 375.17176631 229.9375 377.3125 C208.35332859 378.46782404 189.95431026 375.34997993 172.95703125 361.25390625 C169.36937593 357.80503837 166.345767 353.94625972 163.29052734 350.02734375 C160.602144 346.62005313 157.82514314 343.28461285 155.0625 339.9375 C154.16277466 338.84417358 154.16277466 338.84417358 153.24487305 337.72875977 C149.10661383 332.70616635 144.91777893 327.72951795 140.69970703 322.77392578 C137.39339033 318.87916562 134.20025427 314.90579118 131.02734375 310.90234375 C128.10529685 307.28119031 125.08928514 303.74295431 122.07421875 300.19921875 C119.15745487 296.76678391 116.28056574 293.30657185 113.4375 289.8125 C106.87253331 281.75496539 100.1259122 273.85235388 93.34838867 265.97338867 C88.55052792 260.3945695 83.8148302 254.77753344 79.18359375 249.05859375 C77.52677588 247.03295381 75.85528443 245.02822663 74.16015625 243.03515625 C73.69625488 242.48746582 73.23235352 241.93977539 72.75439453 241.37548828 C71.44247347 239.82951122 70.12566351 238.28768682 68.80859375 236.74609375 C66.9375 234.3125 66.9375 234.3125 66.9375 232.3125 C66.2775 232.3125 65.6175 232.3125 64.9375 232.3125 C64.95780273 232.86945557 64.97810547 233.42641113 64.99902344 234.00024414 C65.18721559 243.96962743 64.12008845 253.83748045 63.1875 263.75 C63.00372284 265.73982557 62.81996665 267.72965307 62.63623047 269.71948242 C61.50210998 281.88608931 60.23824347 294.03210946 58.82437134 306.16915894 C57.63136713 316.43828152 56.59969521 326.71809418 55.65247345 337.01273155 C55.45664938 339.14086878 55.25977138 341.26890639 55.06268311 343.39692688 C54.47005381 349.80569142 53.8820295 356.21472292 53.3150568 362.62581348 C53.1335166 364.6624351 52.94770819 366.69861728 52.76017761 368.73469543 C52.52930053 371.24474902 52.30540395 373.75545912 52.09004211 376.26689148 C50.5554748 392.67501286 46.31497786 408.26203542 35.9375 421.3125 C35.40382813 422.00988281 34.87015625 422.70726562 34.3203125 423.42578125 C23.32087365 436.97772147 5.48729436 445.8423693 -11.74829102 447.71240234 C-15.48757275 447.88152431 -19.19475173 447.91913448 -22.9375 447.875 C-24.25161865 447.86476807 -25.5657373 447.85453613 -26.91967773 447.84399414 C-36.86031721 447.62675612 -45.0101574 446.49295904 -54.0625 442.3125 C-55.75439453 441.56806641 -55.75439453 441.56806641 -57.48046875 440.80859375 C-77.21001072 431.20981307 -88.03157973 413.94950299 -95.3359375 393.91015625 C-97.2684432 387.00092887 -97.21552117 380.11270754 -97.1875 373 C-97.19136719 371.99904297 -97.19523437 370.99808594 -97.19921875 369.96679688 C-97.19792969 369.01224609 -97.19664062 368.05769531 -97.1953125 367.07421875 C-97.19418457 366.20756592 -97.19305664 365.34091309 -97.19189453 364.44799805 C-97.0625 362.3125 -97.0625 362.3125 -96.0625 360.3125 C-95.89739629 358.68756112 -95.7873163 357.05691504 -95.703125 355.42578125 C-95.6419751 354.36649414 -95.5808252 353.30720703 -95.51782227 352.21582031 C-95.45006592 351.03084961 -95.38230957 349.84587891 -95.3125 348.625 C-94.46232258 335.06044966 -93.10161879 321.57198818 -91.625 308.0625 C-90.13284863 294.40401344 -88.68497855 280.75127781 -87.5 267.0625 C-86.4920977 255.48585945 -85.24214281 243.9582012 -83.87036133 232.42086792 C-82.20766266 218.36052313 -80.95638637 204.27420932 -79.74639893 190.16860962 C-78.76682196 178.77975097 -77.69111912 167.44114554 -76.13867188 156.11352539 C-74.72235909 145.43216651 -73.95870974 134.68474877 -73.15209961 123.94311523 C-72.67983689 117.78472183 -72.20859873 111.67401507 -71.09765625 105.58984375 C-69.25904368 95.40474884 -68.69421262 85.00629047 -67.8125 74.70385742 C-67.5674954 71.86070341 -67.31527149 69.01825371 -67.0625 66.17578125 C-66.99160156 65.31930496 -66.92070312 64.46282867 -66.84765625 63.58039856 C-65.17740093 44.90666474 -57.54363627 29.42663619 -44.0625 16.3125 C-31.15191002 5.651979 -16.69167896 -0.26360832 0 0 Z " fill="#FDFBFB" transform="translate(408.0625,422.6875)"/>
<path d="M0 0 C1.27617188 0.71929687 1.27617188 0.71929687 2.578125 1.453125 C4.84048171 2.85363153 6.91024864 4.35462105 9 6 C9.73476563 6.56074219 10.46953125 7.12148438 11.2265625 7.69921875 C20.57886668 15.36425156 27.26777107 25.53258156 31 37 C31.35449219 37.86882812 31.70898438 38.73765625 32.07421875 39.6328125 C36.15544813 54.4767776 33.08507153 72.12260042 26.4375 85.6875 C18.36244619 99.38442672 6.35605727 108.61325011 -8 115 C-9.13308594 115.51626953 -9.13308594 115.51626953 -10.2890625 116.04296875 C-23.61836417 121.05911938 -40.57821859 118.78380466 -53.4140625 113.62890625 C-69.52403634 106.31097696 -81.15258021 93.74665601 -87.4375 77.125 C-88.00145426 75.43041281 -88.51891276 73.71994919 -89 72 C-89.52787109 70.13794922 -89.52787109 70.13794922 -90.06640625 68.23828125 C-93.78640619 52.98646024 -90.51290989 38.38390562 -83.2890625 24.77734375 C-81.64347689 22.07069049 -79.90055872 19.5326736 -78 17 C-77.49082031 16.29746094 -76.98164062 15.59492188 -76.45703125 14.87109375 C-59.16261119 -6.94976711 -24.07312894 -13.88344473 0 0 Z " fill="#FDFCFB" transform="translate(656,433)"/>
<path d="M0 0 C1.39488077 3.93953546 0.83970378 7.7594096 0.44140625 11.828125 C0.37340317 12.57713074 0.30540009 13.32613647 0.2353363 14.09783936 C0.017369 16.48252455 -0.20993489 18.86621347 -0.4375 21.25 C-0.5872057 22.86973474 -0.73630129 24.489526 -0.88476562 26.109375 C-1.24944239 30.07360645 -1.62249329 34.03697059 -2 38 C-2.33 38 -2.66 38 -3 38 C-4.20608898 30.45379461 -3.8008195 23.52681056 -2.76220703 16.01586914 C-2.2031212 11.96508961 -1.99395117 8.08296221 -2 4 C-1 1.625 -1 1.625 0 0 Z " fill="#ECD5C8" transform="translate(471,672)"/>
<path d="M0 0 C0.99 0.495 0.99 0.495 2 1 C1.67 1.66 1.34 2.32 1 3 C1.66 3 2.32 3 3 3 C2.98259766 3.95712891 2.98259766 3.95712891 2.96484375 4.93359375 C2.95582031 5.75988281 2.94679688 6.58617187 2.9375 7.4375 C2.92589844 8.26121094 2.91429687 9.08492187 2.90234375 9.93359375 C2.76732652 11.99163938 2.76732652 11.99163938 4 13 C4.07189368 15.58817253 3.99632443 18.1617251 3.9375 20.75 C3.74127744 22.97034405 3.74127744 22.97034405 5 24 C4.71269945 26.33944736 4.38063221 28.6739143 4 31 C3.67 31 3.34 31 3 31 C1.71237806 20.6740221 0.6257441 10.3906455 0 0 Z " fill="#E7C9BB" transform="translate(781,656)"/>
<path d="M0 0 C0.33 0 0.66 0 1 0 C3.32771696 18.51430263 3.32771696 18.51430263 -0.546875 24.31640625 C-1.02640625 24.87199219 -1.5059375 25.42757812 -2 26 C-1.49354466 17.31482976 -0.97704701 8.64790541 0 0 Z " fill="#FDD0B4" transform="translate(323,664)"/>
<path d="M0 0 C0.33 0 0.66 0 1 0 C1.19390729 2.31197155 1.37996367 4.6246029 1.5625 6.9375 C1.66691406 8.22527344 1.77132813 9.51304687 1.87890625 10.83984375 C1.91886719 11.88269531 1.95882813 12.92554688 2 14 C1.67 14.33 1.34 14.66 1 15 C1.020625 16.216875 1.04125 17.43375 1.0625 18.6875 C1.12400242 22.48014944 0.41906123 25.45234693 -1 29 C-1.33 29 -1.66 29 -2 29 C-1.03644647 9.03189066 -1.03644647 9.03189066 0 0 Z " fill="#FC9653" transform="translate(461,776)"/>
<path d="M0 0 C0.66 0.33 1.32 0.66 2 1 C0.66413946 3.88164201 -0.83637331 6.25276708 -2.875 8.6875 C-3.36742187 9.28949219 -3.85984375 9.89148438 -4.3671875 10.51171875 C-6.22477098 12.20487499 -7.54739113 12.60184921 -10 13 C-6.73279209 8.61105071 -3.45101522 4.24740335 0 0 Z " fill="#FB701D" transform="translate(708,741)"/>
<path d="M0 0 C0.99 0.33 1.98 0.66 3 1 C2.67 4.3 2.34 7.6 2 11 C2.66 11 3.32 11 4 11 C4 12.98 4 14.96 4 17 C3.01 16.67 2.02 16.34 1 16 C0.67 10.72 0.34 5.44 0 0 Z " fill="#F3DFD7" transform="translate(784,688)"/>
<path d="M0 0 C0.66 0 1.32 0 2 0 C4.67135401 3.83883465 3.84057805 7.39895643 3.125 11.75 C3.02058594 12.44738281 2.91617187 13.14476562 2.80859375 13.86328125 C2.55032364 15.57725559 2.27667048 17.2888995 2 19 C1.34 19 0.68 19 0 19 C-0.12625251 12.43486974 -0.12625251 12.43486974 0.5625 10.0625 C1.28649227 6.6493936 0.51460607 3.43070714 0 0 Z " fill="#E5C5B0" transform="translate(470,651)"/>
<path d="M0 0 C0.33 0 0.66 0 1 0 C2.46627319 14.28625632 2.46627319 14.28625632 0 21 C-0.36950465 23.32787927 -0.71352467 25.66045145 -1 28 C-1.33 28 -1.66 28 -2 28 C-2.11665117 21.75916215 -1.66713776 15.70257811 -1 9.5 C-0.90460938 8.5821875 -0.80921875 7.664375 -0.7109375 6.71875 C-0.47760493 4.47875735 -0.24055688 2.23922632 0 0 Z " fill="#FC924D" transform="translate(464,746)"/>
<path d="M0 0 C0.99 0.33 1.98 0.66 3 1 C0.69 3.97 -1.62 6.94 -4 10 C-4.66 9.01 -5.32 8.02 -6 7 C-4.02 4.69 -2.04 2.38 0 0 Z " fill="#FC6E1A" transform="translate(734,710)"/>
<path d="M0 0 C0.66 0 1.32 0 2 0 C0.34908222 4.29238623 -2.73754566 6.8793915 -6 10 C-6.66 9.67 -7.32 9.34 -8 9 C-6.71520959 7.49410612 -5.42195918 5.99542625 -4.125 4.5 C-3.04605469 3.24703125 -3.04605469 3.24703125 -1.9453125 1.96875 C-1.30335938 1.3190625 -0.66140625 0.669375 0 0 Z " fill="#FB6C17" transform="translate(771,666)"/>
<path d="M0 0 C0.33 0 0.66 0 1 0 C1.34833144 4.87664009 0.41685712 7.77050005 -2 12 C-2.66 12 -3.32 12 -4 12 C-3.52309796 10.37433394 -3.04340334 8.74948689 -2.5625 7.125 C-2.29566406 6.22007812 -2.02882813 5.31515625 -1.75390625 4.3828125 C-1 2 -1 2 0 0 Z " fill="#F97A30" transform="translate(456,819)"/>
<path d="M0 0 C0.66 0.33 1.32 0.66 2 1 C2 1.66 2 2.32 2 3 C-3.45769231 6.10096154 -3.45769231 6.10096154 -6.203125 5.58984375 C-6.79609375 5.39519531 -7.3890625 5.20054687 -8 5 C-6.71475739 4.13619741 -5.42157581 3.28419631 -4.125 2.4375 C-3.04605469 1.72400391 -3.04605469 1.72400391 -1.9453125 0.99609375 C-1.30335938 0.66738281 -0.66140625 0.33867188 0 0 Z " fill="#FB7424" transform="translate(664,538)"/>
<path d="M0 0 C0.33 1.32 0.66 2.64 1 4 C1.66 4 2.32 4 3 4 C2.67 5.65 2.34 7.3 2 9 C1.01 8.67 0.02 8.34 -1 8 C-0.67 5.36 -0.34 2.72 0 0 Z " fill="#FEE2D1" transform="translate(1115,945)"/>
<path d="M0 0 C0.66 0 1.32 0 2 0 C3.625 2.5 3.625 2.5 5 5 C4.01 5 3.02 5 2 5 C1.34 5.66 0.68 6.32 0 7 C0 4.69 0 2.38 0 0 Z " fill="#FA843C" transform="translate(473,655)"/>
<path d="M0 0 C0.66 0.33 1.32 0.66 2 1 C0.92598892 3.91517292 0.22189824 5.77810176 -2 8 C-2.33 7.01 -2.66 6.02 -3 5 C-1.5625 2.3125 -1.5625 2.3125 0 0 Z " fill="#FC6812" transform="translate(1092,1004)"/>
<path d="M0 0 C0.66 0.66 1.32 1.32 2 2 C1.7578125 4.1640625 1.7578125 4.1640625 1.125 6.625 C0.92132813 7.44226563 0.71765625 8.25953125 0.5078125 9.1015625 C0.34023438 9.72804688 0.17265625 10.35453125 0 11 C-0.33 11 -0.66 11 -1 11 C-1.125 3.375 -1.125 3.375 0 0 Z " fill="#F97F35" transform="translate(460,794)"/>
<path d="M0 0 C0.33 0 0.66 0 1 0 C1 1.65 1 3.3 1 5 C-0.98 5.66 -2.96 6.32 -5 7 C-4.19152271 5.83054208 -3.37810888 4.66449539 -2.5625 3.5 C-2.11003906 2.8503125 -1.65757812 2.200625 -1.19140625 1.53125 C-0.79824219 1.0259375 -0.40507813 0.520625 0 0 Z " fill="#FC7821" transform="translate(778,657)"/>
<path d="M0 0 C2.99324263 1.0975223 3.84610901 1.67682892 5.25 4.625 C5.4975 5.40875 5.745 6.1925 6 7 C5.01 7 4.02 7 3 7 C0 2.77777778 0 2.77777778 0 0 Z " fill="#FC7314" transform="translate(1087,240)"/>
</svg>
